<svg width="34" height="21" viewBox="0 0 34 21" fill="none" xmlns="http://www.w3.org/2000/svg">
<path d="M31.1663 2.8H21.2498V0H31.1663V2.8ZM33.6115 16.8C32.9853 18.6158 30.7371 21 26.3851 21C22.0303 21 18.5029 18.5794 18.5029 13.055C18.5029 7.581 21.7966 4.767 26.2463 4.767C30.6124 4.767 33.2786 7.2618 33.8608 10.9634C33.9713 11.6718 34.0152 12.6266 33.9954 13.9594H22.6239C22.8081 18.4548 27.5581 18.5962 29.1235 16.8H33.6115ZM22.7231 11.2H29.7568C29.608 9.0342 28.1474 8.0934 26.2477 8.0934C24.1709 8.0934 23.022 9.1686 22.7231 11.2ZM9.16007 20.9832H0V0.0293999H9.84998C17.6076 0.1428 17.7549 7.651 13.7033 9.6978C18.6063 11.4618 18.7706 20.9832 9.16007 20.9832V20.9832ZM4.24995 8.4H9.32723C12.8802 8.4 13.444 4.2 8.88524 4.2H4.24995V8.4V8.4ZM9.05382 12.6H4.24995V16.8224H8.98299C13.3109 16.8224 13.0459 12.6 9.05382 12.6V12.6Z" fill="black"/>
</svg>
