<svg width="55" height="55" viewBox="0 0 55 55" fill="none" xmlns="http://www.w3.org/2000/svg">
<path d="M42.1663 19.8H32.2498V17H42.1663V19.8ZM44.6115 33.8C43.9853 35.6158 41.7371 38 37.3851 38C33.0303 38 29.5029 35.5794 29.5029 30.055C29.5029 24.581 32.7966 21.767 37.2463 21.767C41.6124 21.767 44.2786 24.2618 44.8608 27.9634C44.9713 28.6718 45.0152 29.6266 44.9954 30.9594H33.6239C33.8081 35.4548 38.5581 35.5962 40.1235 33.8H44.6115ZM33.7231 28.2H40.7568C40.608 26.0342 39.1474 25.0934 37.2477 25.0934C35.1709 25.0934 34.022 26.1686 33.7231 28.2ZM20.1601 37.9832H11V17.0294H20.85C28.6076 17.1428 28.7549 24.651 24.7033 26.6978C29.6063 28.4618 29.7706 37.9832 20.1601 37.9832V37.9832ZM15.25 25.4H20.3272C23.8802 25.4 24.444 21.2 19.8852 21.2H15.25V25.4V25.4ZM20.0538 29.6H15.25V33.8224H19.983C24.3109 33.8224 24.0459 29.6 20.0538 29.6V29.6Z" fill="white"/>
<circle cx="27.5" cy="27.5" r="26.5" stroke="white" stroke-width="2"/>
</svg>
