<svg width="500" height="500" viewBox="0 0 500 500" fill="none" xmlns="http://www.w3.org/2000/svg">
<path d="M492.021 0H7.97852C3.57129 0 0 3.57129 0 7.97852V492.021C0 496.429 3.57129 500 7.97852 500H492.021C496.429 500 500 496.429 500 492.021V7.97852C500 3.57129 496.429 0 492.021 0ZM484.043 484.043H15.957V15.957H484.043V484.043Z" fill="white"/>
<path d="M460.106 31.915H39.8936C35.4863 31.915 31.915 35.4863 31.915 39.8936V71.8086C31.915 76.2158 35.4863 79.7871 39.8936 79.7871H460.106C464.514 79.7871 468.085 76.2158 468.085 71.8086V39.8936C468.085 35.4863 464.514 31.915 460.106 31.915ZM452.128 63.8301H47.8721V47.873H452.127V63.8301H452.128Z" fill="white"/>
<path d="M460.106 342.199H39.8936C35.4863 342.199 31.915 345.771 31.915 350.178V460.106C31.915 464.514 35.4863 468.085 39.8936 468.085H460.106C464.514 468.085 468.085 464.514 468.085 460.106V350.178C468.085 345.771 464.514 342.199 460.106 342.199ZM452.128 452.128H47.8721V358.156H452.127V452.128H452.128Z" fill="white"/>
<path d="M309.396 95.7451H190.604C186.196 95.7451 182.625 99.3164 182.625 103.724V222.519C182.625 226.926 186.196 230.497 190.604 230.497H309.397C313.805 230.497 317.376 226.926 317.376 222.519V103.724C317.376 99.3164 313.805 95.7451 309.396 95.7451ZM290.133 111.702L250 151.836L209.866 111.702H290.133V111.702ZM198.582 122.986L238.716 163.12L198.582 203.254V122.986ZM209.867 214.539L250 174.405L290.134 214.539H209.867V214.539ZM301.418 203.254L261.284 163.12L301.418 122.986V203.254Z" fill="white"/>
<path d="M460.106 95.7451H341.312C336.904 95.7451 333.333 99.3164 333.333 103.724V222.519C333.333 226.926 336.904 230.497 341.312 230.497H460.106C464.514 230.497 468.085 226.926 468.085 222.519V103.724C468.085 99.3164 464.514 95.7451 460.106 95.7451ZM440.843 111.702L400.709 151.836L360.575 111.702H440.843V111.702ZM349.29 122.986L389.424 163.12L349.29 203.254V122.986ZM360.574 214.539L400.709 174.405L440.843 214.539H360.574ZM452.128 203.254L411.994 163.12L452.128 122.986V203.254Z" fill="white"/>
<path d="M309.396 246.454H190.604C186.196 246.454 182.625 250.025 182.625 254.433C182.625 258.84 186.196 262.411 190.604 262.411H309.397C313.805 262.411 317.376 258.84 317.376 254.433C317.376 250.025 313.805 246.454 309.396 246.454Z" fill="white"/>
<path d="M460.106 246.454H341.312C336.904 246.454 333.333 250.025 333.333 254.433C333.333 258.84 336.904 262.411 341.312 262.411H460.106C464.514 262.411 468.085 258.84 468.085 254.433C468.085 250.025 464.514 246.454 460.106 246.454Z" fill="white"/>
<path d="M158.688 246.454H39.8936C35.4863 246.454 31.915 250.025 31.915 254.433C31.915 258.84 35.4863 262.411 39.8936 262.411H158.688C163.096 262.411 166.667 258.84 166.667 254.433C166.667 250.025 163.096 246.454 158.688 246.454Z" fill="white"/>
<path d="M309.396 278.369H190.604C186.196 278.369 182.625 281.94 182.625 286.348C182.625 290.755 186.196 294.326 190.604 294.326H309.397C313.805 294.326 317.376 290.755 317.376 286.348C317.376 281.94 313.805 278.369 309.396 278.369Z" fill="white"/>
<path d="M460.106 278.369H341.312C336.904 278.369 333.333 281.94 333.333 286.348C333.333 290.755 336.904 294.326 341.312 294.326H460.106C464.514 294.326 468.085 290.755 468.085 286.348C468.085 281.94 464.514 278.369 460.106 278.369Z" fill="white"/>
<path d="M158.688 278.369H39.8936C35.4863 278.369 31.915 281.94 31.915 286.348C31.915 290.755 35.4863 294.326 39.8936 294.326H158.688C163.096 294.326 166.667 290.755 166.667 286.348C166.667 281.94 163.096 278.369 158.688 278.369Z" fill="white"/>
<path d="M250.178 310.284H190.604C186.196 310.284 182.625 313.855 182.625 318.263C182.625 322.67 186.196 326.241 190.604 326.241H250.178C254.585 326.241 258.156 322.67 258.156 318.263C258.156 313.855 254.585 310.284 250.178 310.284Z" fill="white"/>
<path d="M400.886 310.284H341.312C336.904 310.284 333.333 313.855 333.333 318.263C333.333 322.67 336.904 326.241 341.312 326.241H400.886C405.293 326.241 408.864 322.67 408.864 318.263C408.864 313.855 405.294 310.284 400.886 310.284Z" fill="white"/>
<path d="M99.4678 310.284H39.8936C35.4863 310.284 31.915 313.855 31.915 318.263C31.915 322.67 35.4863 326.241 39.8936 326.241H99.4678C103.875 326.241 107.446 322.67 107.446 318.263C107.446 313.855 103.876 310.284 99.4678 310.284Z" fill="white"/>
<path d="M158.688 95.7451H39.8936C35.4863 95.7451 31.915 99.3164 31.915 103.724V222.519C31.915 226.926 35.4863 230.497 39.8936 230.497H158.688C163.096 230.497 166.667 226.926 166.667 222.519V103.724C166.667 99.3164 163.096 95.7451 158.688 95.7451ZM139.425 111.702L99.291 151.836L59.1572 111.702H139.425V111.702ZM47.8721 122.987L88.0059 163.12L47.8721 203.255V122.987V122.987ZM59.1562 214.539L99.29 174.405L139.425 214.539H59.1562ZM150.71 203.254L110.576 163.12L150.71 122.986V203.254Z" fill="white"/>
</svg>
