<svg width="500" height="500" viewBox="0 0 500 500" fill="none" xmlns="http://www.w3.org/2000/svg">
<path d="M201.613 193.548C152.702 193.548 112.903 233.347 112.903 282.258C112.903 331.169 152.702 370.968 201.613 370.968C250.524 370.968 290.323 331.169 290.323 282.258C290.323 233.347 250.524 193.548 201.613 193.548ZM201.613 354.839C161.597 354.839 129.032 322.282 129.032 282.258C129.032 242.234 161.597 209.677 201.613 209.677C241.629 209.677 274.194 242.234 274.194 282.258C274.194 322.282 241.629 354.839 201.613 354.839Z" fill="white"/>
<path d="M370.968 306.452V345.71L429.863 306.452H443.548C465.782 306.452 483.871 288.363 483.871 266.129V169.355C483.871 147.121 465.782 129.032 443.548 129.032H400.403C393.742 110.266 375.863 96.7742 354.839 96.7742C333.815 96.7742 315.935 110.266 309.274 129.032H266.129C263.371 129.032 260.669 129.315 258.065 129.847V72.5806C258.065 50.3468 239.976 32.2581 217.742 32.2581H174.597C167.935 13.4919 150.056 0 129.032 0C108.008 0 90.129 13.4919 83.4677 32.2581H40.3226C18.0887 32.2581 0 50.3468 0 72.5806V169.355C0 191.589 18.0887 209.677 40.3226 209.677H105.065C89.8065 229.919 80.6452 255.008 80.6452 282.258C80.6452 306.516 87.8871 329.081 100.234 348.04L88.7097 359.565L80.6452 351.5L10.7177 421.435C3.80645 428.339 0 437.532 0 447.298C0 467.468 16.4113 483.871 36.5806 483.871C46.3548 483.871 55.5403 480.065 62.4435 473.161L132.371 403.226L124.306 395.161L135.831 383.637C154.79 395.984 177.355 403.226 201.613 403.226C260.032 403.226 308.903 361.605 320.145 306.452H370.968ZM403.226 145.161H443.548C456.887 145.161 467.742 156.016 467.742 169.355V266.129C467.742 279.468 456.887 290.323 443.548 290.323H424.976L387.097 315.581V290.323H322.169C322.347 287.645 322.581 284.984 322.581 282.258C322.581 279.532 322.347 276.871 322.169 274.194H435.484V258.065C435.484 224.137 414.387 195.089 384.645 183.202C395.935 174.331 403.226 160.597 403.226 145.161ZM378.419 258.065L373.492 196.323C399.992 204.347 419.355 228.976 419.355 258.065H378.419ZM357.089 193.661L362.234 258.065H347.444L352.581 193.685C353.339 193.661 354.081 193.548 354.839 193.548C355.597 193.548 356.339 193.637 357.089 193.661ZM331.258 258.065H320.137C317.218 243.726 311.645 230.371 304.129 218.355C312.395 207.806 323.589 200.226 336.177 196.419L331.258 258.065ZM354.839 112.903C372.629 112.903 387.097 127.371 387.097 145.161C387.097 162.952 372.629 177.419 354.839 177.419C337.048 177.419 322.581 162.952 322.581 145.161C322.581 127.371 337.048 112.903 354.839 112.903ZM306.452 145.161C306.452 160.589 313.734 174.315 325.008 183.185C313.331 187.839 302.806 195.161 294.363 204.742C280.621 188.331 262.581 175.702 242.032 168.387C242.556 155.5 253.121 145.161 266.129 145.161H306.452ZM177.419 48.3871H217.742C231.081 48.3871 241.935 59.2419 241.935 72.5806V137.306C233.597 143.621 227.863 153.024 226.363 163.863C220.935 162.726 215.347 162.081 209.677 161.71V161.29C209.677 127.363 188.581 98.3145 158.839 86.4274C170.129 77.5565 177.419 63.8226 177.419 48.3871V48.3871ZM64.5161 161.29C64.5161 132.202 83.879 107.573 110.387 99.5484L105.452 161.29H64.5161ZM126.782 96.8871C127.532 96.8629 128.274 96.7742 129.032 96.7742C129.79 96.7742 130.532 96.8629 131.282 96.8871L136.427 161.29H121.637L126.782 96.8871ZM147.677 99.5484C174.185 107.573 193.548 132.202 193.548 161.29H152.613L147.677 99.5484ZM129.032 16.129C146.823 16.129 161.29 30.5968 161.29 48.3871C161.29 66.1774 146.823 80.6452 129.032 80.6452C111.242 80.6452 96.7742 66.1774 96.7742 48.3871C96.7742 30.5968 111.242 16.129 129.032 16.129ZM16.129 169.355V72.5806C16.129 59.2419 26.9839 48.3871 40.3226 48.3871H80.6452C80.6452 63.8226 87.9355 77.5565 99.2258 86.4274C69.4839 98.3145 48.3871 127.363 48.3871 161.29V177.419H141.524C133.621 181.968 126.306 187.395 119.653 193.548H40.3226C26.9839 193.548 16.129 182.694 16.129 169.355ZM51.0403 461.758C47.1774 465.613 42.0403 467.742 36.5806 467.742C25.3064 467.742 16.129 458.565 16.129 447.298C16.129 441.839 18.2581 436.71 22.121 432.839L80.6452 374.306L109.565 403.226L51.0403 461.758ZM112.903 383.758L100.113 370.968L110.024 361.056C113.968 365.629 118.242 369.903 122.815 373.847L112.903 383.758ZM201.613 387.097C143.806 387.097 96.7742 340.065 96.7742 282.258C96.7742 224.452 143.806 177.419 201.613 177.419C259.419 177.419 306.452 224.452 306.452 282.258C306.452 340.065 259.419 387.097 201.613 387.097Z" fill="white"/>
<path d="M475.806 354.839H330.645C317.306 354.839 306.452 365.693 306.452 379.032V475.806C306.452 489.145 317.306 500 330.645 500H475.806C489.145 500 500 489.145 500 475.806V379.032C500 365.693 489.145 354.839 475.806 354.839ZM483.871 475.806C483.871 480.258 480.25 483.871 475.806 483.871H330.645C326.202 483.871 322.581 480.258 322.581 475.806V379.032C322.581 374.581 326.202 370.968 330.645 370.968H475.806C480.25 370.968 483.871 374.581 483.871 379.032V475.806Z" fill="white"/>
<path d="M451.613 403.226H435.484V451.613H419.355V419.355H403.226V451.613H387.097V435.484H370.968V451.613H354.839V387.097H338.709V467.742H467.742V451.613H451.613V403.226Z" fill="white"/>
<path d="M435.484 161.29H451.613V177.419H435.484V161.29Z" fill="white"/>
<path d="M435.484 193.548H451.613V209.677H435.484V193.548Z" fill="white"/>
<path d="M32.2583 64.5161H48.3873V80.6451H32.2583V64.5161Z" fill="white"/>
<path d="M32.2583 96.7742H48.3873V112.903H32.2583V96.7742Z" fill="white"/>
</svg>
