<svg width="565" height="530" viewBox="0 0 565 530" fill="none" xmlns="http://www.w3.org/2000/svg">
<path d="M380.935 458.764C378.012 456.959 375.466 454.538 373.441 451.604C372.506 450.251 371.717 448.82 371.063 447.342H38.9408V114.951H489.748V331.991C499.372 332.873 507.448 339.291 510.838 348.08C513.84 346.409 517.186 345.377 520.702 345.062C523.081 344.852 525.444 345.002 527.735 345.461V32.1445C527.735 14.42 513.536 0 496.081 0H32.609C15.1542 0 0.952637 14.42 0.952637 32.1445V453.773C0.952637 471.497 15.1542 485.916 32.609 485.916H378.05C375.354 480.373 374.715 474.116 376.301 468.096C377.216 464.633 378.798 461.474 380.935 458.764ZM454.985 53.977C454.985 47.4223 460.218 42.1074 466.674 42.1074H478.362C484.819 42.1074 490.051 47.421 490.051 53.977V67.4286C490.051 73.9833 484.817 79.2968 478.362 79.2968H466.674C460.217 79.2968 454.985 73.9833 454.985 67.4286V53.977ZM400.633 53.977C400.633 47.4223 405.866 42.1074 412.321 42.1074H424.011C430.468 42.1074 435.7 47.421 435.7 53.977V67.4286C435.7 73.9833 430.467 79.2968 424.011 79.2968H412.321C405.866 79.2968 400.633 73.9833 400.633 67.4286V53.977ZM346.279 53.977C346.279 47.4223 351.514 42.1074 357.968 42.1074H369.656C376.113 42.1074 381.346 47.421 381.346 53.977V67.4286C381.346 73.9833 376.113 79.2968 369.656 79.2968H357.968C351.514 79.2968 346.279 73.9833 346.279 67.4286V53.977Z" fill="white"/>
<path d="M564.925 436.129L561.413 415.903C560.939 413.18 558.383 411.36 555.698 411.84L537.984 415.01C535.857 409.943 533.141 405.197 529.918 400.853L541.488 386.849C542.329 385.834 542.738 384.518 542.626 383.194C542.51 381.87 541.881 380.648 540.879 379.792L525.387 366.59C524.385 365.737 523.086 365.322 521.783 365.438C520.479 365.554 519.276 366.191 518.435 367.208L506.875 381.201C502.13 378.746 497.054 376.853 491.736 375.604V357.339C491.736 354.574 489.527 352.329 486.803 352.329H466.574C463.851 352.329 461.641 354.574 461.641 357.339V375.604C456.32 376.852 451.25 378.746 446.501 381.201L434.939 367.21C433.188 365.09 430.077 364.815 427.988 366.592L412.494 379.792C411.492 380.648 410.865 381.87 410.75 383.194C410.637 384.518 411.045 385.836 411.886 386.853L423.458 400.854C420.239 405.197 417.518 409.946 415.392 415.011L397.678 411.84C394.999 411.361 392.438 413.18 391.962 415.903L388.451 436.129C388.224 437.437 388.518 438.782 389.267 439.871C390.02 440.961 391.161 441.702 392.45 441.932L410.177 445.105C410.466 450.681 411.423 456.077 412.962 461.214L397.381 470.345C396.247 471.007 395.421 472.103 395.081 473.385C394.743 474.669 394.921 476.035 395.574 477.186L405.687 494.972C406.339 496.123 407.419 496.962 408.681 497.306C409.102 497.42 409.53 497.476 409.959 497.476C410.817 497.476 411.667 497.25 412.425 496.805L428.018 487.663C431.685 491.653 435.824 495.188 440.348 498.177L434.191 515.352C433.745 516.602 433.803 517.979 434.356 519.183C434.91 520.388 435.91 521.319 437.139 521.772L456.143 528.794C456.688 528.996 457.26 529.1 457.831 529.1C458.543 529.1 459.259 528.943 459.919 528.629C461.105 528.069 462.019 527.051 462.467 525.802L468.622 508.627C471.262 508.952 473.948 509.119 476.674 509.119C479.399 509.119 482.085 508.949 484.725 508.627L490.882 525.802C491.328 527.051 492.247 528.069 493.43 528.629C494.088 528.942 494.801 529.1 495.517 529.1C496.087 529.1 496.659 528.999 497.204 528.794L516.21 521.772C517.437 521.319 518.439 520.385 518.991 519.183C519.544 517.979 519.603 516.602 519.156 515.352L512.999 498.18C517.519 495.19 521.658 491.653 525.329 487.666L540.922 496.808C541.679 497.25 542.53 497.479 543.389 497.479C543.816 497.479 544.248 497.42 544.666 497.309C545.93 496.965 547.007 496.123 547.66 494.975L557.773 477.186C558.426 476.038 558.604 474.669 558.266 473.385C557.926 472.106 557.1 471.009 555.966 470.345L540.388 461.217C541.927 456.078 542.881 450.683 543.17 445.107L560.897 441.934C562.187 441.703 563.331 440.962 564.08 439.873C564.858 438.782 565.152 437.437 564.925 436.129ZM476.69 468.269C461.706 468.269 449.557 455.933 449.557 440.718C449.557 425.503 461.708 413.169 476.69 413.169C491.674 413.169 503.824 425.503 503.824 440.718C503.824 455.933 491.674 468.269 476.69 468.269Z" fill="white"/>
<path d="M222.169 299.202C222.169 292.721 218.429 286.768 212.638 284.038L159.642 259.036L212.639 234.031C218.429 231.298 222.169 225.346 222.169 218.868V218.432C222.169 212.691 219.323 207.419 214.56 204.338C211.925 202.63 208.856 201.725 205.687 201.725C203.299 201.725 200.901 202.259 198.756 203.271L114.03 243.276C108.242 246.009 104.504 251.961 104.504 258.438V259.634C104.504 266.103 108.241 272.051 114.032 274.798L198.766 314.807C200.956 315.837 203.29 316.359 205.699 316.359C208.84 316.359 211.899 315.454 214.56 313.735C219.326 310.642 222.171 305.375 222.171 299.64L222.169 299.202Z" fill="white"/>
<path d="M305.766 160.961C302.675 156.665 297.704 154.101 292.467 154.101H292.045C284.854 154.101 278.549 158.772 276.358 165.716L220.535 341.341C218.946 346.412 219.841 351.997 222.927 356.292C226.018 360.585 230.989 363.15 236.226 363.15H236.649C243.838 363.15 250.139 358.478 252.327 351.536L308.143 175.924C309.747 170.857 308.858 165.264 305.766 160.961Z" fill="white"/>
<path d="M414.657 243.275L329.93 203.269C327.791 202.26 325.398 201.727 323.01 201.727C319.842 201.727 316.772 202.628 314.138 204.334C309.367 207.421 306.521 212.691 306.521 218.432V218.867C306.521 225.34 310.259 231.293 316.053 234.038L369.047 259.037L316.052 284.038C310.261 286.768 306.521 292.721 306.521 299.202V299.64C306.521 305.375 309.367 310.641 314.135 313.737C316.787 315.452 319.849 316.359 322.993 316.359C325.4 316.359 327.731 315.837 329.936 314.803L414.668 274.793C420.453 272.053 424.188 266.104 424.188 259.636V258.439C424.184 251.961 420.446 246.009 414.657 243.275Z" fill="white"/>
</svg>
